<svg width="30" height="16" viewBox="0 0 30 16" fill="none" xmlns="http://www.w3.org/2000/svg">
<g clip-path="url(#clip0_1_15)">
<path d="M1.387 13.3781H3.64591L2.49081 15.9999L1.387 13.3781Z" fill="#363C44"/>
<path fill-rule="evenodd" clip-rule="evenodd" d="M0.402518 0C0.623917 0 0.805326 0.181408 0.805326 0.402808V10.4023L1.8164 12.8154H1.01108L0 10.4023V0.402808C0 0.181408 0.181119 0 0.402518 0Z" fill="#A1A0D2"/>
<path fill-rule="evenodd" clip-rule="evenodd" d="M4.57846 5.50108C4.35706 5.50108 4.17594 5.68249 4.17594 5.90389V10.4023L3.16486 12.8154H3.97019L4.98126 10.4023V5.90389C4.98126 5.68249 4.79986 5.50108 4.57846 5.50108Z" fill="#A1A0D2"/>
<path fill-rule="evenodd" clip-rule="evenodd" d="M2.49081 0.279647C2.71221 0.279647 2.89333 0.460766 2.89333 0.682165V1.38664C2.89333 1.60804 2.71221 1.78916 2.49081 1.78916C2.26941 1.78916 2.088 1.60804 2.088 1.38664V0.682165C2.088 0.460766 2.26941 0.279647 2.49081 0.279647ZM3.69112 9.85372C3.45262 9.85372 3.21384 9.61494 3.21384 9.37644V2.94948C3.21384 2.5658 2.89999 2.25225 2.5166 2.25225C2.13292 2.25225 1.81937 2.56609 1.81937 2.94948V9.37644C1.81937 9.61494 1.58087 9.85372 1.34208 9.85372H1.12503L2.16277 12.8154H2.89101L3.92875 9.85372H3.69112Z" fill="#2C3974"/>
<path d="M3.90093 5.15449C3.84732 5.15449 3.79313 5.1429 3.73951 5.11943C3.69228 5.10204 3.65548 5.07074 3.62563 5.02756C3.59665 4.98409 3.58216 4.93947 3.581 4.89368C3.58216 4.80327 3.61606 4.69286 3.68706 4.56332C3.75777 4.43205 3.90325 4.2118 4.12349 3.9026C4.29359 3.6641 4.4182 3.47922 4.49326 3.34649C4.56918 3.2158 4.62946 3.0964 4.67554 2.99121C4.70683 2.92311 4.73436 2.87471 4.76044 2.84574C4.82999 2.78459 4.9178 2.75416 5.02531 2.75416C5.16412 2.75416 5.28612 2.79879 5.39219 2.89036C5.49825 2.98107 5.55099 3.09119 5.55099 3.21841C5.55099 3.28216 5.52723 3.37286 5.47883 3.48936C5.43015 3.60614 5.40552 3.6641 5.40552 3.6641C5.40552 3.6641 5.51013 3.5931 5.71849 3.45024C5.92714 3.30882 6.06624 3.21956 6.1355 3.18421C6.19722 3.15552 6.26126 3.14219 6.33081 3.14219C6.43601 3.14219 6.52613 3.17117 6.59945 3.23029C6.67422 3.28911 6.71102 3.36794 6.71102 3.46502C6.71102 3.5592 6.68726 3.66005 6.6377 3.76785C6.58902 3.87507 6.50643 4.02982 6.38877 4.23296C6.41485 4.20688 6.4505 4.17008 6.49599 4.12139C6.7371 3.86174 7.03066 3.57485 7.37956 3.25782C7.4607 3.18827 7.55373 3.10423 7.65631 3.00715C7.74238 2.92601 7.80555 2.87327 7.84381 2.85095C7.88322 2.83009 7.93538 2.81965 8.00203 2.81965C8.11882 2.81965 8.21706 2.85646 8.29559 2.93122C8.37296 3.00454 8.41237 3.09756 8.41237 3.21058C8.41237 3.27491 8.39644 3.35461 8.36369 3.44908C8.33239 3.54355 8.28255 3.67193 8.21706 3.83305C8.14229 4.01272 8.08578 4.15819 8.04927 4.27121C8.01246 4.38394 7.99421 4.48218 7.99421 4.56709C7.99421 4.73488 8.08607 4.82152 8.27096 4.82413C8.41643 4.82413 8.57784 4.78095 8.75462 4.69575C8.93139 4.60911 9.17684 4.43118 9.49126 4.15993C9.59645 4.06807 9.67093 4.00547 9.71701 3.9736C9.76164 3.9423 9.79409 3.9252 9.8138 3.9252C9.85321 3.93042 9.87176 3.9423 9.87176 3.96085C9.87176 3.98055 9.85205 4.01446 9.81003 4.06024C9.76917 4.10632 9.69585 4.18225 9.58863 4.28715C9.30406 4.5639 9.03948 4.76704 8.79577 4.89803C8.5506 5.02814 8.32254 5.09335 8.11012 5.09335C7.9093 5.09335 7.74035 5.04234 7.60241 4.93976C7.4636 4.83775 7.3729 4.72995 7.33001 4.61751C7.28161 4.48624 7.25669 4.35293 7.25669 4.2176C7.25669 4.09966 7.27379 3.98316 7.30886 3.86753C7.34334 3.7522 7.38507 3.63425 7.43346 3.51109C7.45433 3.45487 7.4636 3.42445 7.4636 3.41923V3.41546C7.43346 3.41546 7.36797 3.46647 7.26713 3.56992C7.16483 3.67338 7.01646 3.83479 6.81853 4.05213C6.59858 4.29729 6.42268 4.48739 6.29314 4.62244C6.16187 4.75748 6.06479 4.83862 6.00074 4.86615C5.95496 4.89252 5.9167 4.9044 5.88541 4.9044C5.8147 4.9044 5.74109 4.87166 5.66922 4.80471C5.59562 4.73777 5.55881 4.65026 5.55881 4.54014C5.55881 4.44306 5.59069 4.32627 5.65213 4.19239C5.71211 4.05735 5.78833 3.90811 5.87729 3.74148C5.9309 3.64585 5.95843 3.59339 5.95843 3.58412L5.95467 3.58035C5.90598 3.58035 5.73964 3.68758 5.45768 3.90376C5.17455 4.12023 4.92707 4.34308 4.71466 4.5697C4.52716 4.77834 4.37097 4.92643 4.24404 5.018C4.11653 5.1087 4.00264 5.15449 3.90035 5.15449H3.90093ZM10.1563 5.15449C10.0619 5.15449 9.96478 5.12696 9.86799 5.07335C9.77091 5.01974 9.68948 4.9357 9.62659 4.82036C9.56226 4.70503 9.5298 4.56071 9.5298 4.38655C9.5298 4.10719 9.60428 3.83479 9.7512 3.56992C9.89784 3.30505 10.0975 3.08887 10.3464 2.92108C10.5954 2.75329 10.8654 2.66809 11.1549 2.66549L11.2312 2.66143C11.3268 2.66143 11.4053 2.67215 11.4697 2.69331C11.534 2.71417 11.6137 2.74808 11.7108 2.79676C11.7319 2.8069 11.749 2.81502 11.7618 2.82023C11.8429 2.7559 11.9142 2.71127 11.9742 2.68519C12.0347 2.66027 12.1133 2.64694 12.2101 2.64694C12.344 2.64694 12.4526 2.67969 12.5393 2.74663C12.6242 2.81357 12.6676 2.89848 12.6676 3.00367C12.6676 3.04424 12.6491 3.10568 12.6114 3.18856C12.5746 3.2697 12.517 3.3888 12.4367 3.545C12.3098 3.80204 12.2089 4.01707 12.1382 4.19007C12.066 4.36423 12.0304 4.51521 12.0304 4.64359C12.0304 4.70735 12.0382 4.76009 12.0568 4.80095C12.075 4.84297 12.1014 4.86644 12.1379 4.87426C12.1431 4.87426 12.1533 4.87426 12.1718 4.87426C12.2005 4.87687 12.2228 4.87803 12.2414 4.87803C12.3355 4.87803 12.4289 4.85833 12.5219 4.82065C12.6137 4.7824 12.7273 4.71169 12.8627 4.6094C12.9989 4.50739 13.1771 4.35554 13.3973 4.15588C13.599 3.96983 13.7181 3.87536 13.7538 3.87536H13.7575C13.7877 3.87797 13.8036 3.88869 13.8036 3.90666C13.8036 3.9423 13.7431 4.02083 13.6225 4.14023C13.3695 4.39698 13.1545 4.59636 12.9763 4.73922C12.7983 4.88325 12.6343 4.98554 12.4822 5.04727C12.4063 5.07741 12.3483 5.09711 12.3118 5.10465C12.275 5.11247 12.2057 5.11682 12.1057 5.11682C12.0063 5.11682 11.9394 5.11276 11.9041 5.1061C11.8701 5.09972 11.8218 5.08233 11.7612 5.05509C11.5094 4.93193 11.3497 4.72212 11.2801 4.42422C11.2775 4.41408 11.2726 4.3993 11.2656 4.37843C11.2503 4.33004 11.2396 4.30512 11.2343 4.30512C11.2317 4.30512 11.2135 4.33004 11.1764 4.37843C11.0547 4.54217 10.9225 4.69546 10.7834 4.83717C10.6432 4.97859 10.4951 5.07451 10.3363 5.1229C10.2618 5.14377 10.2012 5.1542 10.1557 5.1542L10.1563 5.15449ZM10.2673 4.86615C10.2948 4.86615 10.3447 4.84644 10.4168 4.80732C10.489 4.76675 10.578 4.70126 10.684 4.6094C10.7901 4.51782 10.9214 4.37988 11.0776 4.19789C11.0828 4.19268 11.0892 4.18514 11.0973 4.17181C11.1616 4.09705 11.1993 4.0472 11.2141 4.01996C11.2286 3.99359 11.248 3.94143 11.274 3.86377C11.3346 3.67511 11.4105 3.46386 11.4998 3.23058V3.22652C11.4998 3.21638 11.4876 3.21116 11.4615 3.21116C11.392 3.21116 11.3027 3.23347 11.1929 3.27665C11.0393 3.35403 10.8849 3.4853 10.7304 3.67019C10.5754 3.85623 10.4484 4.05271 10.3476 4.25875C10.2479 4.46421 10.1983 4.62678 10.1983 4.74792C10.1983 4.82761 10.2218 4.86702 10.2676 4.86702L10.2673 4.86615ZM10.527 11.4754C10.2149 11.4754 9.99144 11.3971 9.85843 11.2409C9.7257 11.0853 9.65934 10.9054 9.65934 10.7034C9.65934 10.4475 9.75265 10.1881 9.93986 9.92588C10.1262 9.66391 10.4366 9.38832 10.8692 9.09998C11.3016 8.81164 11.8733 8.51344 12.5851 8.20714C12.6647 8.17265 12.774 8.12744 12.9116 8.06804C13.0678 8.00081 13.151 7.96024 13.1617 7.95647C13.2072 7.94111 14.5014 5.22085 14.6678 4.91541C14.6443 4.92874 14.6142 4.94671 14.5762 4.96903C14.4684 5.03336 14.3835 5.07509 14.3218 5.09653C14.26 5.11624 14.1748 5.12638 14.0647 5.12638C13.8288 5.12638 13.6596 5.05944 13.5576 4.92353C13.4553 4.78849 13.404 4.62562 13.404 4.43987C13.404 4.18688 13.4773 3.93013 13.6242 3.67193C13.7723 3.41343 13.9743 3.19986 14.2314 3.03207C14.4896 2.86428 14.7764 2.78024 15.0938 2.78024C15.2039 2.78024 15.3137 2.79473 15.4253 2.82371C15.5369 2.85095 15.6261 2.88804 15.6928 2.93383C15.7267 2.95991 15.7527 2.97324 15.7739 2.97324C15.7855 2.97324 15.809 2.96803 15.842 2.9573C15.9089 2.93905 15.964 2.92977 16.0072 2.92977C16.1199 2.92977 16.217 2.96542 16.2955 3.03497C16.3755 3.10307 16.4149 3.20797 16.4149 3.34939C16.4149 3.52674 16.381 3.7125 16.3115 3.90811C16.2419 4.10458 16.159 4.30917 16.0608 4.5242C16.0124 4.6262 15.9889 4.683 15.9889 4.69315C15.9889 4.69575 15.9915 4.6972 15.9965 4.6972C16.0373 4.6972 16.1501 4.65113 16.3335 4.56071C16.5184 4.4703 16.7595 4.34714 17.0556 4.19007C17.3478 4.03938 17.4996 3.96432 17.5129 3.96432C17.5457 3.96432 17.5628 3.97592 17.5628 4.00258C17.5628 4.05097 17.4092 4.15443 17.104 4.31178C16.7972 4.46914 16.4248 4.64997 15.9846 4.85456C15.9414 4.87542 15.9087 4.89136 15.8875 4.90035C15.6293 5.35908 14.1838 8.34305 13.925 8.72934C13.6663 9.1165 13.4078 9.46511 13.149 9.77664C12.8914 10.0876 12.6308 10.3577 12.3729 10.588C12.1147 10.8187 11.8574 11.0059 11.6035 11.1505C11.3477 11.2957 11.0976 11.3948 10.8483 11.4484C10.7623 11.4667 10.6545 11.4757 10.5261 11.4757L10.527 11.4754ZM10.3459 11.0613C10.6356 11.0613 10.9509 10.8981 11.2923 10.5727C11.6337 10.247 12.0078 9.79113 12.4054 9.1988C12.5213 9.02608 12.6561 8.81222 12.8143 8.56039C12.9716 8.3103 13.0502 8.17642 13.0502 8.16164C13.0348 8.16164 12.8549 8.24075 12.51 8.39782C12.1654 8.55517 11.9174 8.67109 11.767 8.74904C11.1454 9.071 10.6864 9.3889 10.3905 9.69955C10.094 10.0099 9.94739 10.3067 9.94739 10.588C9.94739 10.7037 9.97753 10.8109 10.039 10.9109C10.1007 11.0103 10.203 11.0613 10.3459 11.0613ZM14.1844 4.81631C14.2143 4.81631 14.2629 4.80471 14.3284 4.7795C14.3928 4.75603 14.4585 4.72212 14.5223 4.67866C14.6014 4.62881 14.6979 4.55434 14.8133 4.45175C14.9289 4.34974 15.0129 4.26571 15.0639 4.20166C15.0996 4.15298 15.1766 4.01417 15.296 3.78321C15.4151 3.55253 15.4757 3.42416 15.4783 3.39923C15.4783 3.3859 15.4612 3.37953 15.4285 3.37953C15.2856 3.37953 15.1636 3.40706 15.0642 3.46067C14.9225 3.53022 14.7811 3.63918 14.6368 3.78726C14.4939 3.93535 14.376 4.09386 14.2815 4.26165C14.1885 4.42944 14.1427 4.5723 14.1427 4.69286L14.1386 4.74705C14.1386 4.79544 14.1531 4.81891 14.1847 4.81631H14.1844ZM17.7645 5.15449C17.7103 5.15449 17.6584 5.14812 17.6094 5.13479C17.4692 5.09711 17.3631 5.02756 17.2912 4.92759C17.2191 4.82819 17.1834 4.68532 17.1834 4.50159C17.1834 4.26049 17.2504 4.00866 17.3851 3.7464C17.519 3.48443 17.683 3.26419 17.8743 3.08829C18.067 2.91152 18.2412 2.82226 18.3974 2.82226C18.502 2.82226 18.5927 2.8524 18.6672 2.91152C18.7431 2.97035 18.7813 3.03729 18.7813 3.1106C18.7813 3.14741 18.7654 3.19348 18.7329 3.25086C18.7011 3.30882 18.6396 3.39634 18.5466 3.51428C18.3188 3.82378 18.1429 4.09241 18.0172 4.32048C17.8914 4.54883 17.8285 4.70966 17.8285 4.80414C17.8285 4.85253 17.8572 4.87745 17.9134 4.87745C17.9975 4.87745 18.1258 4.84355 18.2974 4.77545C18.4692 4.70706 18.6567 4.60766 18.8613 4.47377C19.0329 4.36365 19.2375 4.21296 19.4722 4.0217C19.5519 3.95476 19.6099 3.90753 19.6478 3.88115C19.6846 3.85391 19.7121 3.84058 19.7301 3.84058C19.7603 3.84058 19.7759 3.85652 19.7759 3.88637C19.7759 3.92984 19.6426 4.06198 19.3763 4.28251C19.1103 4.50246 18.8219 4.70329 18.5095 4.88267C18.1989 5.06379 17.9496 5.15391 17.7639 5.15391L17.7645 5.15449ZM18.8196 2.73851C18.7973 2.73851 18.7709 2.73591 18.7434 2.73069C18.699 2.72055 18.6593 2.69562 18.6243 2.65621C18.5875 2.6168 18.5707 2.57768 18.5707 2.53943C18.5707 2.46205 18.6127 2.3557 18.6964 2.22095C18.7634 2.11083 18.8297 2.0323 18.8967 1.98767C18.9636 1.94304 19.0395 1.92073 19.1276 1.92073C19.2218 1.92073 19.2992 1.94159 19.3609 1.98245C19.4226 2.02302 19.4539 2.07547 19.4539 2.13981C19.4539 2.1882 19.4163 2.26181 19.3424 2.36005C19.2679 2.45945 19.1813 2.54754 19.0804 2.62347C18.9807 2.70055 18.8941 2.7388 18.8196 2.7388V2.73851ZM22.2461 5.15449C22.1817 5.15449 22.1215 5.14812 22.0649 5.13479C21.8711 5.09161 21.7149 4.99076 21.6007 4.83311C21.4854 4.67576 21.428 4.50681 21.428 4.32482C21.428 4.23035 21.45 4.10719 21.4946 3.9536C21.5393 3.80175 21.5906 3.65338 21.6482 3.51051C21.7062 3.36765 21.7349 3.29549 21.7349 3.29549L21.7271 3.29172C21.6563 3.29172 21.4807 3.40329 21.2017 3.62585C20.9223 3.8487 20.5656 4.17384 20.1292 4.60128C19.9301 4.79515 19.7701 4.93425 19.6496 5.0151C19.529 5.09798 19.4226 5.13855 19.3311 5.13855C19.2525 5.13855 19.1804 5.11624 19.1187 5.069C19.0558 5.02293 19.0245 4.96555 19.0245 4.896C19.0245 4.82529 19.0639 4.72183 19.145 4.58534C19.2262 4.4503 19.356 4.24861 19.5342 3.98258C19.7217 3.70583 19.862 3.49197 19.9576 3.34157C20.119 3.0909 20.2132 2.95441 20.2407 2.93383C20.2827 2.88804 20.3378 2.85095 20.4059 2.82487C20.4755 2.79734 20.5488 2.7843 20.6247 2.7843C20.7505 2.7843 20.8609 2.81676 20.9551 2.88254C21.051 2.94803 21.0982 3.03555 21.0982 3.14596C21.0982 3.19696 21.0886 3.24941 21.0707 3.30418C21.0536 3.35924 21.0208 3.43952 20.9748 3.54413C20.9594 3.58093 20.9487 3.6073 20.9409 3.62527C20.9817 3.59397 21.046 3.54413 21.1324 3.47603C21.3396 3.3094 21.5138 3.18363 21.6529 3.09843C21.7931 3.01439 21.9253 2.97266 22.0496 2.97266C22.1754 2.97266 22.2858 3.01468 22.3788 3.09843C22.4718 3.18334 22.5191 3.29636 22.5191 3.43662C22.5191 3.52964 22.5046 3.63165 22.4744 3.74582C22.4457 3.86 22.4023 4.00432 22.346 4.17848C22.3029 4.31874 22.2701 4.43031 22.2478 4.51C22.2269 4.59114 22.2151 4.65953 22.2151 4.71604C22.2151 4.84297 22.2898 4.9073 22.4379 4.9073C22.5402 4.9073 22.6637 4.88238 22.8077 4.83138C22.9505 4.78037 23.0833 4.71343 23.2064 4.63055C23.26 4.59288 23.3818 4.4929 23.5707 4.33207C23.7095 4.21123 23.817 4.12081 23.8941 4.06082C23.9703 4.00026 24.0187 3.97012 24.0396 3.97012C24.0645 3.97012 24.083 3.98084 24.0938 4.002C24.0938 4.02431 23.9941 4.13414 23.7933 4.33236C23.5942 4.52883 23.442 4.66648 23.3371 4.74241C23.1522 4.87079 22.9647 4.97192 22.7723 5.04408C22.5808 5.1174 22.4049 5.1542 22.2466 5.1542L22.2461 5.15449ZM24.3552 5.15449C24.3015 5.15449 24.2491 5.14812 24.2007 5.13479C24.0604 5.09711 23.9544 5.02756 23.8822 4.92759C23.8101 4.82819 23.775 4.68532 23.775 4.50159C23.775 4.26049 23.8419 4.00866 23.9767 3.7464C24.1106 3.48443 24.274 3.26419 24.4659 3.08829C24.6583 2.91152 24.8327 2.82226 24.9886 2.82226C25.0938 2.82226 25.184 2.8524 25.259 2.91152C25.3349 2.97035 25.3732 3.03729 25.3732 3.1106C25.3732 3.14741 25.3573 3.19348 25.3245 3.25086C25.2932 3.30882 25.2315 3.39634 25.1385 3.51428C24.9101 3.82378 24.7348 4.09241 24.609 4.32048C24.4832 4.54883 24.4201 4.70966 24.4201 4.80414C24.4201 4.85253 24.4488 4.87745 24.5056 4.87745C24.5896 4.87745 24.7177 4.84355 24.8895 4.77545C25.0611 4.70706 25.2486 4.60766 25.4532 4.47377C25.6247 4.36365 25.8296 4.21296 26.064 4.0217C26.144 3.95476 26.202 3.90753 26.2397 3.88115C26.2765 3.85391 26.304 3.84058 26.3225 3.84058C26.3524 3.84058 26.3683 3.85652 26.3683 3.88637C26.3683 3.92984 26.2344 4.06198 25.9684 4.28251C25.7024 4.50246 25.414 4.70329 25.1022 4.88267C24.7916 5.06379 24.5424 5.15391 24.356 5.15391L24.3552 5.15449ZM25.4103 2.73851C25.388 2.73851 25.3619 2.73591 25.3344 2.73069C25.2897 2.72055 25.2503 2.69562 25.215 2.65621C25.1782 2.6168 25.1614 2.57768 25.1614 2.53943C25.1614 2.46205 25.2034 2.3557 25.2871 2.22095C25.3541 2.11083 25.421 2.0323 25.4879 1.98767C25.5549 1.94304 25.6308 1.92073 25.7186 1.92073C25.8131 1.92073 25.8905 1.94159 25.9522 1.98245C26.0139 2.02302 26.0452 2.07547 26.0452 2.13981C26.0452 2.1882 26.007 2.26181 25.9336 2.36005C25.8589 2.45945 25.7722 2.54754 25.6714 2.62347C25.572 2.70055 25.4853 2.7388 25.4106 2.7388L25.4103 2.73851ZM25.4459 5.15449C25.3949 5.15449 25.3541 5.14 25.3265 5.11247C25.2915 5.07857 25.2729 5.04292 25.2729 5.00525C25.2729 4.8847 25.379 4.71285 25.5914 4.49C25.7302 4.35612 25.8797 4.22658 26.0409 4.09821C26.0516 4.09038 26.0594 4.08488 26.0646 4.08227C26.0646 4.07329 26.0658 4.0588 26.0672 4.04025C26.0907 3.81247 26.1182 3.62063 26.1521 3.46502C26.1849 3.30882 26.2466 3.17262 26.337 3.05583C26.4263 2.93934 26.5535 2.88051 26.7172 2.88051C26.8065 2.88051 26.8902 2.90543 26.9702 2.95383C27.0493 3.00222 27.0896 3.06656 27.0896 3.14654C27.0896 3.21203 27.0806 3.30215 27.0621 3.41517L27.0543 3.46878C27.0595 3.46618 27.0716 3.4598 27.0899 3.44908C27.533 3.21058 27.7718 3.09264 27.8083 3.09264C27.8358 3.09264 27.8683 3.10423 27.9077 3.13031C27.9459 3.15523 27.9657 3.18827 27.9657 3.22594C27.9657 3.25985 27.9146 3.31143 27.8138 3.38214C27.7124 3.45285 27.5657 3.54616 27.3745 3.6641C27.2276 3.75336 27.12 3.82233 27.0493 3.86956C26.9783 3.9168 26.9404 3.9507 26.9363 3.97041C26.9102 4.16051 26.8969 4.33352 26.8969 4.48971C26.8969 4.60244 26.9065 4.68996 26.9244 4.75429C26.9415 4.81862 26.9583 4.85948 26.9743 4.87745C26.9925 4.89339 27.0189 4.89977 27.054 4.89977C27.1209 4.89977 27.2021 4.8789 27.2965 4.83543C27.3687 4.79863 27.4721 4.71372 27.6098 4.57984C27.7463 4.4448 27.8628 4.31381 27.9572 4.18688C28.0465 4.05851 28.099 3.99417 28.1146 3.99417C28.1224 3.99156 28.1305 3.99012 28.1384 3.99012C28.15 3.99012 28.1633 3.99533 28.176 4.00345C28.1894 4.01243 28.1946 4.02315 28.1946 4.03619C28.1946 4.05706 28.1436 4.14341 28.0401 4.29555C27.9367 4.44798 27.8512 4.56042 27.7842 4.63113C27.6585 4.78356 27.5144 4.90672 27.3519 5.00235C27.1893 5.09798 27.0412 5.14638 26.9047 5.14638C26.7697 5.14638 26.6413 5.10581 26.5234 5.02322C26.404 4.94207 26.3083 4.82819 26.2362 4.68126C26.2284 4.66417 26.2191 4.64069 26.206 4.61316C26.1736 4.52507 26.1513 4.48189 26.1406 4.48189C26.1182 4.48189 25.9988 4.57375 25.7853 4.7569C25.5717 4.93918 25.4656 5.04669 25.4639 5.07712C25.4653 5.08204 25.4665 5.08871 25.4717 5.09682C25.485 5.10957 25.4914 5.12406 25.4914 5.14261C25.4807 5.15043 25.4653 5.1542 25.4456 5.1542L25.4459 5.15449Z" fill="#2C3974"/>
<path d="M14.8286 9.04811C14.8083 9.04811 14.7872 9.04318 14.7649 9.03333C14.6881 8.99884 14.6495 8.93364 14.6495 8.83569C14.6495 8.73658 14.6895 8.62154 14.7704 8.48997C14.8503 8.35783 14.9894 8.19091 15.1874 7.98892C15.2584 7.9159 15.3114 7.86548 15.3441 7.8365C15.3766 7.80752 15.4062 7.78839 15.4314 7.77854C15.4566 7.76869 15.4911 7.76463 15.5334 7.76463C15.6052 7.76463 15.6623 7.78202 15.7058 7.81882C15.749 7.85562 15.7704 7.89967 15.7704 7.95183C15.7704 7.98777 15.7565 8.02979 15.7284 8.0776C15.7 8.12571 15.6502 8.19178 15.5792 8.27524C15.5751 8.27929 15.5728 8.28248 15.5728 8.28364H15.5751C15.5792 8.28364 15.5899 8.27785 15.6079 8.26712C15.6722 8.22742 15.753 8.18801 15.8487 8.14889C15.9452 8.10948 16.0081 8.09035 16.0385 8.09035C16.0718 8.09035 16.1043 8.1031 16.1356 8.12918C16.1666 8.15526 16.1828 8.18627 16.1828 8.22192C16.1828 8.28132 16.1428 8.37956 16.0634 8.51663C16.044 8.54851 16.0344 8.57285 16.0344 8.59082C16.0344 8.6227 16.0605 8.63834 16.1127 8.63834C16.1802 8.63834 16.2654 8.61516 16.3686 8.56793C16.4714 8.52156 16.5789 8.46737 16.6925 8.40535C16.7276 8.38565 16.7467 8.37666 16.7482 8.37666C16.767 8.37666 16.7783 8.38449 16.7809 8.4013C16.7809 8.41115 16.7563 8.43375 16.7076 8.46969C16.6583 8.50475 16.5981 8.54271 16.525 8.5827C16.4526 8.62241 16.3758 8.65689 16.2964 8.68471C16.2167 8.71311 16.1451 8.72702 16.0817 8.72702C15.9875 8.72702 15.9118 8.70355 15.8565 8.6566C15.8006 8.61023 15.773 8.54561 15.773 8.46302C15.773 8.40101 15.7982 8.32856 15.849 8.24655C15.8574 8.23293 15.8614 8.22539 15.8614 8.22394L15.8594 8.22163C15.8417 8.22163 15.7948 8.24771 15.7194 8.299C15.6435 8.35029 15.5513 8.42216 15.4421 8.51431C15.3326 8.60647 15.2198 8.7105 15.103 8.82729C14.9631 8.96523 14.8848 9.03623 14.8703 9.04202C14.855 9.04608 14.8417 9.04811 14.8289 9.04811H14.8286ZM16.8708 9.04811C16.82 9.04811 16.7685 9.03333 16.7163 9.00464C16.6641 8.97595 16.6207 8.93103 16.5868 8.86902C16.5523 8.807 16.5349 8.72963 16.5349 8.63632C16.5349 8.4862 16.5749 8.33986 16.6537 8.19786C16.7328 8.05587 16.8398 7.93966 16.9731 7.84983C17.1069 7.75999 17.2515 7.7142 17.4074 7.71276L17.4483 7.71044C17.4993 7.71044 17.5416 7.71623 17.5761 7.72753C17.6106 7.73884 17.6535 7.75709 17.7056 7.78317C17.7169 7.78897 17.7259 7.79303 17.7329 7.79592C17.7766 7.76115 17.8146 7.73739 17.8471 7.72348C17.8795 7.71015 17.9215 7.70319 17.9737 7.70319C18.0456 7.70319 18.1038 7.72058 18.1502 7.75651C18.196 7.79245 18.2189 7.83823 18.2189 7.89445C18.2189 7.91648 18.209 7.94922 18.1887 7.99385C18.169 8.03732 18.138 8.10107 18.0954 8.18511C18.027 8.32305 17.9728 8.43839 17.9352 8.53141C17.8963 8.62472 17.8772 8.70557 17.8772 8.77483C17.8772 8.80932 17.8813 8.83714 17.8911 8.85916C17.901 8.88148 17.9149 8.89423 17.9349 8.89858C17.9375 8.89858 17.9433 8.89858 17.9531 8.89858C17.9685 8.90002 17.9807 8.90089 17.9905 8.90089C18.0412 8.90089 18.0911 8.89017 18.1409 8.86989C18.1902 8.8496 18.2513 8.81135 18.3238 8.75658C18.3968 8.70181 18.4924 8.62009 18.6107 8.51315C18.719 8.41347 18.7831 8.36275 18.8019 8.36275H18.8042C18.8205 8.3642 18.8289 8.37 18.8289 8.37985C18.8289 8.39869 18.7967 8.44071 18.7318 8.50504C18.5962 8.64298 18.4808 8.74991 18.3852 8.82642C18.2896 8.90379 18.2015 8.95856 18.1198 8.99189C18.0789 9.00812 18.0479 9.01884 18.0282 9.02289C18.0085 9.02695 17.9711 9.02927 17.9178 9.02927C17.8642 9.02927 17.8282 9.02695 17.8094 9.02347C17.7911 9.01971 17.765 9.01072 17.7326 8.99594C17.5976 8.92987 17.5118 8.81714 17.4744 8.65776C17.4732 8.65196 17.4703 8.64414 17.4669 8.63313C17.4582 8.60705 17.4529 8.59343 17.4498 8.59343C17.4483 8.59343 17.4385 8.60705 17.4188 8.63313C17.3533 8.72093 17.2823 8.80323 17.2078 8.87916C17.1324 8.95508 17.0527 9.00667 16.9678 9.03275C16.9278 9.04405 16.8957 9.04927 16.8708 9.04927V9.04811ZM16.9307 8.89365C16.9455 8.89365 16.9719 8.88293 17.0107 8.86177C17.0493 8.84033 17.0974 8.80468 17.1539 8.75571C17.211 8.70645 17.2814 8.63255 17.3651 8.53489C17.3677 8.53199 17.3715 8.52764 17.3759 8.52098C17.4103 8.48041 17.4306 8.45404 17.4382 8.43926C17.446 8.42477 17.4567 8.39695 17.4706 8.35522C17.5031 8.25379 17.5439 8.14049 17.5915 8.01559V8.01356C17.5915 8.00776 17.5851 8.00486 17.5712 8.00486C17.5338 8.00486 17.4863 8.01703 17.4272 8.03993C17.3449 8.08137 17.2617 8.15179 17.1788 8.25119C17.0956 8.35087 17.0272 8.45636 16.9733 8.56677C16.92 8.67747 16.8934 8.7644 16.8934 8.82932C16.8934 8.87191 16.9058 8.89307 16.9307 8.89307V8.89365ZM17.4306 10.9381C17.406 10.9381 17.3863 10.9309 17.3721 10.917C17.3573 10.9022 17.3507 10.881 17.3507 10.8535C17.3507 10.7874 17.4188 10.6286 17.5558 10.3765C17.6923 10.1247 17.9013 9.75693 18.1832 9.27298C18.4811 8.75977 18.6872 8.40999 18.8005 8.22481C18.9135 8.04051 18.9891 7.93242 19.0262 7.90054C19.0769 7.85562 19.1395 7.83215 19.214 7.83215C19.2795 7.83215 19.3366 7.8507 19.385 7.88721C19.4331 7.92343 19.4568 7.96574 19.4568 8.01385C19.4568 8.03848 19.4519 8.06369 19.4429 8.09006C19.4331 8.11614 19.4169 8.15498 19.3931 8.20685C19.3916 8.21148 19.3908 8.21467 19.3896 8.21757C19.469 8.14657 19.536 8.09093 19.5899 8.05152C19.644 8.01298 19.7066 7.97907 19.7762 7.95183C19.8023 7.94285 19.826 7.9356 19.8472 7.93213C19.8692 7.92836 19.9028 7.9272 19.9492 7.9272C20.044 7.9272 20.1144 7.94372 20.1596 7.97849C20.2054 8.01298 20.2404 8.0579 20.2668 8.11267C20.283 8.15092 20.2943 8.18801 20.2993 8.22365C20.3051 8.25959 20.3077 8.30045 20.3077 8.34768C20.3288 8.34768 20.3584 8.34855 20.3984 8.34971C20.5499 8.35348 20.6531 8.35841 20.7087 8.36362C20.7644 8.36942 20.796 8.3813 20.8023 8.39927L20.8044 8.40767C20.8044 8.42245 20.791 8.4323 20.7635 8.43636C20.7568 8.43636 20.7496 8.4352 20.7426 8.4323C20.7319 8.4297 20.7038 8.42825 20.658 8.42825C20.5948 8.42825 20.5027 8.43085 20.3801 8.43665C20.3427 8.4381 20.3146 8.43955 20.2958 8.44071L20.2787 8.50069C20.2485 8.60299 20.192 8.69949 20.1086 8.78932C20.0254 8.87974 19.9289 8.95219 19.8194 9.00696C19.7092 9.06173 19.6006 9.08984 19.4936 9.09129C19.3916 9.09129 19.3131 9.07013 19.256 9.02811C19.1989 8.98493 19.1702 8.92611 19.1702 8.85047C19.1702 8.74151 19.2265 8.64443 19.3389 8.55807C19.4516 8.47143 19.6014 8.4126 19.7887 8.38246L19.8956 8.36623C19.9164 8.30161 19.9263 8.23727 19.9263 8.17265C19.9263 8.11382 19.9098 8.08427 19.8753 8.08427C19.8133 8.08427 19.7507 8.10049 19.6875 8.13353C19.4939 8.23264 19.2815 8.46621 19.0506 8.83424C18.8952 9.08433 18.7138 9.35963 18.5055 9.65927C18.2971 9.95979 18.1053 10.2244 17.9294 10.4521C17.7532 10.6799 17.6323 10.8199 17.5668 10.8729C17.5089 10.9164 17.4634 10.9384 17.4303 10.9384L17.4306 10.9381ZM19.3945 8.84467C19.4458 8.84467 19.5105 8.81772 19.591 8.76498C19.6704 8.71253 19.7478 8.62501 19.8237 8.50417L19.844 8.46737C19.7052 8.49751 19.5991 8.52938 19.5264 8.56184C19.4534 8.59459 19.4035 8.64298 19.376 8.70673C19.3621 8.73426 19.3557 8.75658 19.3557 8.77426C19.3557 8.79077 19.3592 8.80642 19.3656 8.82178C19.3728 8.83656 19.3827 8.84438 19.3942 8.84438L19.3945 8.84467ZM22.2684 9.0484C22.2571 9.0484 22.2345 9.04579 22.2 9.03999C22.096 9.02376 22.0096 8.97537 21.9403 8.8951C21.8717 8.81425 21.8372 8.70876 21.8372 8.57836C21.8372 8.4891 21.8462 8.40419 21.863 8.32363C21.8801 8.24365 21.9027 8.15932 21.9299 8.07123C21.947 8.01645 21.9545 7.98342 21.9545 7.97299C21.9545 7.97009 21.9543 7.96893 21.9525 7.96893C21.9418 7.96893 21.9082 7.98371 21.852 8.01385C21.7957 8.04399 21.7401 8.07702 21.6853 8.11295C21.5228 8.21989 21.3611 8.34073 21.1996 8.47548C21.0379 8.61052 20.9177 8.72296 20.8383 8.81367C20.7826 8.87684 20.7389 8.9206 20.7067 8.94523C20.6748 8.96986 20.6456 8.98232 20.6195 8.98232C20.5534 8.98232 20.5201 8.94378 20.5201 8.86699C20.5201 8.78904 20.5722 8.64472 20.6766 8.43462C20.7797 8.22423 20.9217 7.97328 21.1023 7.68175C21.2814 7.3908 21.4822 7.09029 21.7013 6.77934C21.8569 6.56432 22.0122 6.35683 22.1693 6.15832C22.3261 5.95982 22.4191 5.85057 22.4478 5.83173C22.5066 5.79435 22.5718 5.77551 22.6437 5.77551C22.7231 5.77551 22.79 5.7958 22.8448 5.83666C22.899 5.87752 22.9256 5.92649 22.9256 5.9859C22.9256 6.02705 22.9024 6.08732 22.8561 6.16644C22.8088 6.24497 22.7271 6.36262 22.6103 6.51882C22.4935 6.67444 22.3139 6.90656 22.0722 7.21374C21.8801 7.4618 21.7143 7.67595 21.5738 7.85823C21.4335 8.04051 21.3266 8.18048 21.2521 8.27958C21.1785 8.37898 21.1411 8.42999 21.1411 8.43462C21.155 8.42883 21.2196 8.37956 21.3364 8.28596C21.4978 8.16077 21.6361 8.05471 21.7528 7.96748C21.8696 7.88025 21.9627 7.81882 22.0313 7.78317C22.0647 7.76695 22.1006 7.75854 22.1406 7.75854C22.2174 7.75854 22.2771 7.7823 22.3197 7.82954C22.362 7.87678 22.384 7.94372 22.384 8.02863C22.384 8.05876 22.3768 8.10571 22.362 8.17062C22.3481 8.23525 22.3269 8.32247 22.2991 8.4323C22.2507 8.62009 22.2269 8.73137 22.2269 8.76411C22.2269 8.85279 22.2684 8.898 22.3504 8.898C22.437 8.898 22.5454 8.85714 22.6761 8.77541C22.8062 8.6934 22.961 8.56937 23.1398 8.40361C23.1931 8.35493 23.2267 8.33117 23.2412 8.33117C23.2586 8.33377 23.2676 8.34102 23.2676 8.35232C23.2676 8.36855 23.2429 8.39985 23.1954 8.4465C23.0004 8.63516 22.8393 8.7731 22.7135 8.86032C22.5869 8.94726 22.4672 9.00174 22.3545 9.02405C22.3133 9.04028 22.284 9.04869 22.2684 9.04869V9.0484ZM23.3319 9.0484C23.3029 9.0484 23.2748 9.04492 23.2487 9.03825C23.1734 9.01797 23.1166 8.9803 23.0778 8.92669C23.0389 8.87336 23.0198 8.79657 23.0198 8.69833C23.0198 8.56879 23.0557 8.43375 23.1282 8.2932C23.2001 8.15237 23.2876 8.03442 23.3905 7.93995C23.4939 7.84519 23.5872 7.79708 23.6713 7.79708C23.7275 7.79708 23.7759 7.81331 23.8162 7.84519C23.857 7.87707 23.8773 7.91271 23.8773 7.95212C23.8773 7.97183 23.8689 7.99646 23.8512 8.02747C23.8341 8.05847 23.8014 8.10571 23.7515 8.16889C23.6289 8.33493 23.5351 8.47925 23.4672 8.60154C23.3997 8.72412 23.3658 8.81048 23.3658 8.86119C23.3658 8.88698 23.3812 8.9006 23.4116 8.9006C23.4565 8.9006 23.5255 8.88206 23.6176 8.84583C23.7098 8.80903 23.8104 8.75542 23.9205 8.68355C24.0123 8.62472 24.1222 8.54358 24.2482 8.441C24.2908 8.40506 24.3218 8.37985 24.3424 8.36565C24.3621 8.35087 24.3769 8.34421 24.387 8.34421C24.403 8.34421 24.4117 8.35261 24.4117 8.36884C24.4117 8.39202 24.3398 8.46302 24.1969 8.58126C24.0541 8.6992 23.8996 8.807 23.7321 8.90321C23.5655 9.00029 23.4316 9.04869 23.3319 9.04869V9.0484ZM23.8982 7.75217C23.886 7.75217 23.8721 7.75101 23.8573 7.74811C23.8335 7.74231 23.8124 7.72927 23.7935 7.70812C23.7738 7.68696 23.7646 7.66581 23.7646 7.64523C23.7646 7.60379 23.7872 7.547 23.8321 7.47426C23.868 7.41543 23.904 7.37283 23.9399 7.34907C23.9758 7.32531 24.0167 7.31314 24.0633 7.31314C24.1141 7.31314 24.1555 7.32444 24.1888 7.34588C24.2216 7.36791 24.2387 7.39573 24.2387 7.4305C24.2387 7.45658 24.2184 7.49599 24.179 7.54844C24.139 7.60206 24.0923 7.64929 24.0381 7.68986C23.9848 7.7313 23.9384 7.75188 23.8982 7.75188V7.75217ZM24.7084 9.0484C24.6641 9.0484 24.6226 9.04347 24.5826 9.03362C24.4757 9.00754 24.3891 8.95248 24.3239 8.86612C24.2592 8.77947 24.2259 8.68123 24.2259 8.57024C24.2259 8.43143 24.2691 8.29987 24.3549 8.17555C24.4406 8.05094 24.5476 7.95183 24.6757 7.87649C24.8035 7.80172 24.9246 7.76463 25.0385 7.76463C25.1593 7.76463 25.2532 7.80462 25.3204 7.88547C25.3341 7.90518 25.3425 7.92053 25.3451 7.93184C25.348 7.94343 25.3497 7.96864 25.3497 8.00486C25.3497 8.05355 25.341 8.09702 25.3251 8.13556C25.308 8.17526 25.2926 8.19497 25.277 8.19497C25.2648 8.19497 25.255 8.19091 25.2483 8.18135C25.2419 8.17236 25.2338 8.15758 25.2257 8.13701C25.2199 8.12165 25.2158 8.11006 25.2118 8.10194H25.2095C25.197 8.10194 25.1645 8.12397 25.1124 8.16657C25.0605 8.21032 25.0182 8.25061 24.9866 8.28741C24.9098 8.37551 24.8452 8.47027 24.793 8.57314C24.7412 8.67515 24.7151 8.75368 24.7151 8.80903C24.7151 8.83627 24.7226 8.85482 24.7383 8.8638C24.7545 8.8722 24.7832 8.87713 24.8264 8.87713C24.9565 8.87713 25.097 8.83627 25.2477 8.75397C25.3981 8.67283 25.5401 8.57169 25.6752 8.4523C25.7444 8.38884 25.7885 8.35754 25.809 8.35754C25.8174 8.35754 25.8218 8.36362 25.8218 8.37637C25.8218 8.40101 25.7722 8.45867 25.674 8.55025C25.576 8.64182 25.4781 8.71949 25.3807 8.78469C25.2468 8.87394 25.1251 8.94002 25.0133 8.98348C24.9023 9.02666 24.8009 9.04811 24.7087 9.04811L24.7084 9.0484ZM25.6665 9.0484C25.5624 9.0484 25.4842 9.0284 25.432 8.9887C25.3807 8.94871 25.3552 8.90205 25.3552 8.84873C25.3552 8.8015 25.3787 8.75658 25.4262 8.71224C25.4735 8.66848 25.543 8.62762 25.6352 8.59053C25.6528 8.5856 25.6702 8.57923 25.6865 8.57198C25.7036 8.56532 25.7111 8.56184 25.7111 8.56184C25.7091 8.55228 25.683 8.52591 25.6352 8.48128C25.5332 8.38652 25.4824 8.29002 25.4824 8.19091C25.4824 8.10281 25.5143 8.01472 25.576 7.92633C25.6389 7.83765 25.7189 7.76521 25.8163 7.70899C25.9142 7.6519 26.0113 7.62408 26.1093 7.62408C26.2063 7.62408 26.2872 7.64929 26.3512 7.69856C26.415 7.74782 26.4469 7.80259 26.4469 7.86287C26.4469 7.91155 26.4396 7.95444 26.4245 7.99327C26.4095 8.03094 26.3872 8.05065 26.3585 8.05065C26.3408 8.05065 26.3049 8.03674 26.2515 8.00921C26.2052 7.98603 26.1748 7.97415 26.1608 7.97415C26.1406 7.97415 26.1046 7.99762 26.0542 8.04254C26.0044 8.08832 25.9707 8.12252 25.9525 8.14802C25.8989 8.21351 25.8719 8.2677 25.8719 8.31059C25.8719 8.33262 25.8792 8.3529 25.8922 8.37116C25.9067 8.38999 25.9328 8.41839 25.9713 8.45694C25.982 8.46969 25.991 8.47896 25.9983 8.48591C26.0965 8.46505 26.2147 8.44534 26.3512 8.42796C26.4877 8.41028 26.5813 8.40101 26.6306 8.40101H26.639C26.6468 8.40506 26.6512 8.41173 26.6512 8.41955C26.6512 8.42941 26.6471 8.43433 26.639 8.43433C26.6364 8.43433 26.5816 8.44274 26.4753 8.45896C26.3683 8.47519 26.2718 8.49113 26.1855 8.50736C26.0988 8.52272 26.0559 8.53431 26.0559 8.54126C26.0559 8.54387 26.0609 8.55459 26.0722 8.57198C26.1081 8.634 26.1258 8.68384 26.1258 8.72267C26.1258 8.74731 26.1162 8.77831 26.0982 8.81425C26.0794 8.85047 26.0583 8.88148 26.0328 8.90843C25.9878 8.95219 25.9334 8.98667 25.8702 9.0113C25.8067 9.03594 25.7386 9.0484 25.6662 9.0484H25.6665ZM25.6027 8.929C25.6372 8.929 25.6795 8.91915 25.7305 8.90031C25.7812 8.8809 25.8177 8.85163 25.8398 8.81164C25.8537 8.78701 25.86 8.76237 25.86 8.73716C25.86 8.71108 25.8551 8.6908 25.8438 8.67428C25.8325 8.65892 25.8151 8.63921 25.7905 8.61603C25.7832 8.61023 25.7783 8.60618 25.7757 8.60328C25.656 8.65283 25.5731 8.69398 25.525 8.72731C25.4778 8.76006 25.454 8.79773 25.454 8.84062C25.454 8.85945 25.4703 8.87916 25.5021 8.898C25.5332 8.91683 25.5668 8.92755 25.6027 8.929Z" fill="#2C3974"/>
<path d="M27.5231 12.2958H6.84867C5.97193 12.2958 5.2612 12.866 5.2612 13.5694C5.2612 14.2728 5.97193 14.843 6.84867 14.843H27.5231C28.3999 14.843 29.1106 14.2728 29.1106 13.5694C29.1106 12.866 28.3999 12.2958 27.5231 12.2958Z" fill="#363C44"/>
<path d="M5.88876 12.7973H6.4864V13.0027H6.11467V13.4032H6.4063V13.6085H6.11467V14.2349H5.88876V12.7973ZM6.59473 12.7973H6.92949C7.04587 12.7973 7.13076 12.8247 7.18416 12.8795C7.23755 12.9329 7.26425 13.0157 7.26425 13.128V13.2163C7.26425 13.3655 7.21496 13.46 7.11638 13.4997V13.5038C7.17115 13.5202 7.20949 13.5538 7.23139 13.6044C7.25467 13.6551 7.26631 13.7229 7.26631 13.8077V14.0604C7.26631 14.1014 7.26767 14.135 7.27041 14.161C7.27315 14.1856 7.28 14.2103 7.29095 14.2349H7.06093C7.05272 14.2116 7.04724 14.1897 7.0445 14.1692C7.04176 14.1487 7.04039 14.1117 7.04039 14.0583V13.7954C7.04039 13.7297 7.02944 13.6838 7.00753 13.6578C6.987 13.6318 6.95071 13.6188 6.89869 13.6188H6.82064V14.2349H6.59473V12.7973ZM6.90279 13.4134C6.94798 13.4134 6.98152 13.4018 7.00343 13.3785C7.0267 13.3552 7.03834 13.3162 7.03834 13.2615V13.1506C7.03834 13.0985 7.02876 13.0609 7.00959 13.0376C6.99179 13.0143 6.96304 13.0027 6.92333 13.0027H6.82064V13.4134H6.90279ZM7.42305 12.7973H8.03917V13.0027H7.64896V13.3826H7.95907V13.588H7.64896V14.0296H8.03917V14.2349H7.42305V12.7973ZM8.16913 12.7973H8.78525V13.0027H8.39504V13.3826H8.70516V13.588H8.39504V14.0296H8.78525V14.2349H8.16913V12.7973ZM8.91522 12.7973H9.14113V14.0296H9.51286V14.2349H8.91522V12.7973ZM9.80378 12.7973H10.1098L10.3439 14.2349H10.118L10.0769 13.9495V13.9536H9.82021L9.77914 14.2349H9.56966L9.80378 12.7973ZM10.0502 13.7585L9.9496 13.0479H9.94549L9.84691 13.7585H10.0502ZM10.4535 12.7973H10.7369L10.9567 13.6578H10.9608V12.7973H11.1621V14.2349H10.93L10.6589 13.1855H10.6548V14.2349H10.4535V12.7973ZM11.6483 14.2555C11.5401 14.2555 11.4573 14.2247 11.3998 14.163C11.3437 14.1014 11.3156 14.0145 11.3156 13.9022V13.13C11.3156 13.0177 11.3437 12.9308 11.3998 12.8692C11.4573 12.8076 11.5401 12.7768 11.6483 12.7768C11.7565 12.7768 11.8386 12.8076 11.8947 12.8692C11.9523 12.9308 11.981 13.0177 11.981 13.13V13.282H11.7674V13.1156C11.7674 13.0266 11.7298 12.9821 11.6545 12.9821C11.5792 12.9821 11.5415 13.0266 11.5415 13.1156V13.9186C11.5415 14.0063 11.5792 14.0501 11.6545 14.0501C11.7298 14.0501 11.7674 14.0063 11.7674 13.9186V13.6989H11.981V13.9022C11.981 14.0145 11.9523 14.1014 11.8947 14.163C11.8386 14.2247 11.7565 14.2555 11.6483 14.2555ZM12.1162 12.7973H12.7323V13.0027H12.3421V13.3826H12.6522V13.588H12.3421V14.0296H12.7323V14.2349H12.1162V12.7973ZM13.5116 14.2555C13.402 14.2555 13.3185 14.2247 13.261 14.163C13.2035 14.1001 13.1747 14.0104 13.1747 13.894V13.1382C13.1747 13.0218 13.2035 12.9329 13.261 12.8712C13.3185 12.8083 13.402 12.7768 13.5116 12.7768C13.6211 12.7768 13.7046 12.8083 13.7621 12.8712C13.8196 12.9329 13.8484 13.0218 13.8484 13.1382V13.2615H13.6348V13.1239C13.6348 13.0294 13.5958 12.9821 13.5177 12.9821C13.4397 12.9821 13.4007 13.0294 13.4007 13.1239V13.9104C13.4007 14.0035 13.4397 14.0501 13.5177 14.0501C13.5958 14.0501 13.6348 14.0035 13.6348 13.9104V13.6291H13.5218V13.4237H13.8484V13.894C13.8484 14.0104 13.8196 14.1001 13.7621 14.163C13.7046 14.2247 13.6211 14.2555 13.5116 14.2555ZM13.9934 12.7973H14.3282C14.4445 12.7973 14.5294 12.8247 14.5828 12.8795C14.6362 12.9329 14.6629 13.0157 14.6629 13.128V13.2163C14.6629 13.3655 14.6136 13.46 14.5151 13.4997V13.5038C14.5698 13.5202 14.6082 13.5538 14.6301 13.6044C14.6533 13.6551 14.665 13.7229 14.665 13.8077V14.0604C14.665 14.1014 14.6664 14.135 14.6691 14.161C14.6718 14.1856 14.6787 14.2103 14.6896 14.2349H14.4596C14.4514 14.2116 14.4459 14.1897 14.4432 14.1692C14.4404 14.1487 14.4391 14.1117 14.4391 14.0583V13.7954C14.4391 13.7297 14.4281 13.6838 14.4062 13.6578C14.3857 13.6318 14.3494 13.6188 14.2974 13.6188H14.2193V14.2349H13.9934V12.7973ZM14.3015 13.4134C14.3467 13.4134 14.3802 13.4018 14.4021 13.3785C14.4254 13.3552 14.437 13.3162 14.437 13.2615V13.1506C14.437 13.0985 14.4274 13.0609 14.4083 13.0376C14.3905 13.0143 14.3617 13.0027 14.322 13.0027H14.2193V13.4134H14.3015ZM14.9963 12.7973H15.3023L15.5364 14.2349H15.3105L15.2694 13.9495V13.9536H15.0127L14.9717 14.2349H14.7622L14.9963 12.7973ZM15.2427 13.7585L15.1421 13.0479H15.138L15.0394 13.7585H15.2427ZM15.646 12.7973H15.9787C16.091 12.7973 16.1752 12.8274 16.2313 12.8877C16.2875 12.9479 16.3156 13.0362 16.3156 13.1526V13.2943C16.3156 13.4107 16.2875 13.499 16.2313 13.5592C16.1752 13.6195 16.091 13.6496 15.9787 13.6496H15.8719V14.2349H15.646V12.7973ZM15.9787 13.4442C16.0157 13.4442 16.0431 13.434 16.0609 13.4134C16.0801 13.3929 16.0896 13.358 16.0896 13.3087V13.1382C16.0896 13.0889 16.0801 13.054 16.0609 13.0335C16.0431 13.0129 16.0157 13.0027 15.9787 13.0027H15.8719V13.4442H15.9787ZM16.4382 12.7973H16.6642V13.3826H16.9065V12.7973H17.1324V14.2349H16.9065V13.588H16.6642V14.2349H16.4382V12.7973ZM17.3007 12.7973H17.5266V14.2349H17.3007V12.7973ZM18.0141 14.2555C17.9059 14.2555 17.8231 14.2247 17.7656 14.163C17.7095 14.1014 17.6814 14.0145 17.6814 13.9022V13.13C17.6814 13.0177 17.7095 12.9308 17.7656 12.8692C17.8231 12.8076 17.9059 12.7768 18.0141 12.7768C18.1223 12.7768 18.2044 12.8076 18.2605 12.8692C18.318 12.9308 18.3468 13.0177 18.3468 13.13V13.282H18.1332V13.1156C18.1332 13.0266 18.0956 12.9821 18.0203 12.9821C17.9449 12.9821 17.9073 13.0266 17.9073 13.1156V13.9186C17.9073 14.0063 17.9449 14.0501 18.0203 14.0501C18.0956 14.0501 18.1332 14.0063 18.1332 13.9186V13.6989H18.3468V13.9022C18.3468 14.0145 18.318 14.1014 18.2605 14.163C18.2044 14.2247 18.1223 14.2555 18.0141 14.2555ZM18.8109 12.7973H19.1559C19.2682 12.7973 19.3524 12.8274 19.4085 12.8877C19.4647 12.9479 19.4927 13.0362 19.4927 13.1526V13.8796C19.4927 13.996 19.4647 14.0843 19.4085 14.1446C19.3524 14.2048 19.2682 14.2349 19.1559 14.2349H18.8109V12.7973ZM19.1518 14.0296C19.1888 14.0296 19.2168 14.0186 19.236 13.9967C19.2565 13.9748 19.2668 13.9392 19.2668 13.8899V13.1423C19.2668 13.093 19.2565 13.0574 19.236 13.0355C19.2168 13.0136 19.1888 13.0027 19.1518 13.0027H19.0368V14.0296H19.1518ZM19.6452 12.7973H20.2613V13.0027H19.8711V13.3826H20.1812V13.588H19.8711V14.0296H20.2613V14.2349H19.6452V12.7973ZM20.689 14.2555C20.5795 14.2555 20.4966 14.2247 20.4405 14.163C20.3844 14.1001 20.3563 14.0104 20.3563 13.894V13.8119H20.5699V13.9104C20.5699 14.0035 20.6089 14.0501 20.6869 14.0501C20.7253 14.0501 20.754 14.0391 20.7732 14.0172C20.7937 13.994 20.804 13.957 20.804 13.9063C20.804 13.8461 20.7903 13.7934 20.7629 13.7482C20.7355 13.7016 20.6849 13.6462 20.6109 13.5818C20.5178 13.4997 20.4528 13.4258 20.4158 13.36C20.3789 13.2929 20.3604 13.2176 20.3604 13.1341C20.3604 13.0205 20.3891 12.9329 20.4466 12.8712C20.5042 12.8083 20.5877 12.7768 20.6972 12.7768C20.8054 12.7768 20.8868 12.8083 20.9416 12.8712C20.9977 12.9329 21.0258 13.0218 21.0258 13.1382V13.1978H20.8122V13.1239C20.8122 13.0746 20.8026 13.039 20.7835 13.0171C20.7643 12.9938 20.7362 12.9821 20.6993 12.9821C20.624 12.9821 20.5863 13.028 20.5863 13.1197C20.5863 13.1718 20.6 13.2204 20.6274 13.2656C20.6561 13.3107 20.7075 13.3655 20.7814 13.4299C20.8759 13.512 20.9409 13.5866 20.9765 13.6537C21.0121 13.7208 21.0299 13.7995 21.0299 13.8899C21.0299 14.0076 21.0005 14.098 20.9416 14.161C20.8841 14.224 20.7999 14.2555 20.689 14.2555ZM21.1594 12.7973H21.3854V14.2349H21.1594V12.7973ZM21.8749 14.2555C21.7654 14.2555 21.6819 14.2247 21.6244 14.163C21.5669 14.1001 21.5381 14.0104 21.5381 13.894V13.1382C21.5381 13.0218 21.5669 12.9329 21.6244 12.8712C21.6819 12.8083 21.7654 12.7768 21.8749 12.7768C21.9845 12.7768 22.068 12.8083 22.1255 12.8712C22.183 12.9329 22.2117 13.0218 22.2117 13.1382V13.2615H21.9982V13.1239C21.9982 13.0294 21.9591 12.9821 21.8811 12.9821C21.803 12.9821 21.764 13.0294 21.764 13.1239V13.9104C21.764 14.0035 21.803 14.0501 21.8811 14.0501C21.9591 14.0501 21.9982 14.0035 21.9982 13.9104V13.6291H21.8852V13.4237H22.2117V13.894C22.2117 14.0104 22.183 14.1001 22.1255 14.163C22.068 14.2247 21.9845 14.2555 21.8749 14.2555ZM22.3568 12.7973H22.6402L22.86 13.6578H22.8641V12.7973H23.0653V14.2349H22.8333L22.5622 13.1855H22.5581V14.2349H22.3568V12.7973ZM23.8558 14.2555C23.7463 14.2555 23.6635 14.2247 23.6073 14.163C23.5512 14.1001 23.5231 14.0104 23.5231 13.894V13.8119H23.7367V13.9104C23.7367 14.0035 23.7757 14.0501 23.8538 14.0501C23.8921 14.0501 23.9209 14.0391 23.94 14.0172C23.9606 13.994 23.9709 13.957 23.9709 13.9063C23.9709 13.8461 23.9572 13.7934 23.9298 13.7482C23.9024 13.7016 23.8517 13.6462 23.7778 13.5818C23.6847 13.4997 23.6197 13.4258 23.5827 13.36C23.5457 13.2929 23.5272 13.2176 23.5272 13.1341C23.5272 13.0205 23.556 12.9329 23.6135 12.8712C23.671 12.8083 23.7545 12.7768 23.8641 12.7768C23.9722 12.7768 24.0537 12.8083 24.1085 12.8712C24.1646 12.9329 24.1927 13.0218 24.1927 13.1382V13.1978H23.9791V13.1239C23.9791 13.0746 23.9695 13.039 23.9503 13.0171C23.9311 12.9938 23.9031 12.9821 23.8661 12.9821C23.7908 12.9821 23.7532 13.028 23.7532 13.1197C23.7532 13.1718 23.7668 13.2204 23.7942 13.2656C23.823 13.3107 23.8743 13.3655 23.9483 13.4299C24.0427 13.512 24.1078 13.5866 24.1434 13.6537C24.179 13.7208 24.1968 13.7995 24.1968 13.8899C24.1968 14.0076 24.1673 14.098 24.1085 14.161C24.0509 14.224 23.9667 14.2555 23.8558 14.2555ZM24.3263 12.7973H24.9424V13.0027H24.5522V13.3826H24.8623V13.588H24.5522V14.0296H24.9424V14.2349H24.3263V12.7973ZM25.0724 12.7973H25.4071C25.5235 12.7973 25.6084 12.8247 25.6618 12.8795C25.7152 12.9329 25.7419 13.0157 25.7419 13.128V13.2163C25.7419 13.3655 25.6926 13.46 25.594 13.4997V13.5038C25.6488 13.5202 25.6871 13.5538 25.709 13.6044C25.7323 13.6551 25.744 13.7229 25.744 13.8077V14.0604C25.744 14.1014 25.7453 14.135 25.7481 14.161C25.7508 14.1856 25.7576 14.2103 25.7686 14.2349H25.5386C25.5304 14.2116 25.5249 14.1897 25.5221 14.1692C25.5194 14.1487 25.518 14.1117 25.518 14.0583V13.7954C25.518 13.7297 25.5071 13.6838 25.4852 13.6578C25.4646 13.6318 25.4284 13.6188 25.3763 13.6188H25.2983V14.2349H25.0724V12.7973ZM25.3804 13.4134C25.4256 13.4134 25.4592 13.4018 25.4811 13.3785C25.5043 13.3552 25.516 13.3162 25.516 13.2615V13.1506C25.516 13.0985 25.5064 13.0609 25.4872 13.0376C25.4694 13.0143 25.4407 13.0027 25.401 13.0027H25.2983V13.4134H25.3804ZM25.8331 12.7973H26.0611L26.2089 13.9125H26.2131L26.3609 12.7973H26.5684L26.3507 14.2349H26.0508L25.8331 12.7973ZM26.6769 12.7973H26.9028V14.2349H26.6769V12.7973ZM27.3903 14.2555C27.2821 14.2555 27.1993 14.2247 27.1418 14.163C27.0857 14.1014 27.0576 14.0145 27.0576 13.9022V13.13C27.0576 13.0177 27.0857 12.9308 27.1418 12.8692C27.1993 12.8076 27.2821 12.7768 27.3903 12.7768C27.4985 12.7768 27.5806 12.8076 27.6367 12.8692C27.6943 12.9308 27.723 13.0177 27.723 13.13V13.282H27.5094V13.1156C27.5094 13.0266 27.4718 12.9821 27.3965 12.9821C27.3212 12.9821 27.2835 13.0266 27.2835 13.1156V13.9186C27.2835 14.0063 27.3212 14.0501 27.3965 14.0501C27.4718 14.0501 27.5094 14.0063 27.5094 13.9186V13.6989H27.723V13.9022C27.723 14.0145 27.6943 14.1014 27.6367 14.163C27.5806 14.2247 27.4985 14.2555 27.3903 14.2555ZM27.8582 12.7973H28.4743V13.0027H28.0841V13.3826H28.3942V13.588H28.0841V14.0296H28.4743V14.2349H27.8582V12.7973Z" fill="white"/>
</g>
<defs>
<clipPath id="clip0_1_15">
<rect width="29.1107" height="15.9999" fill="white"/>
</clipPath>
</defs>
</svg>
